<?xml version="1.0" encoding="utf-8"?>
<!-- Generator: Adobe Illustrator 24.2.1, SVG Export Plug-In . SVG Version: 6.00 Build 0)  -->
<svg version="1.1" id="Layer_1" xmlns="http://www.w3.org/2000/svg" xmlns:xlink="http://www.w3.org/1999/xlink" x="0px" y="0px"
	 viewBox="0 0 512 512" style="enable-background:new 0 0 512 512;" xml:space="preserve">
<style type="text/css">
	.st0{fill:#FF4C60;}
</style>
<g id="Chinese_plum_flower">
	<g id="Outline">
		<path class="st0" d="M373.8,97.4C361.3,32.3,298.4-10.3,233.4,2.1c-48.3,9.3-86,47-95.2,95.3C65.7,86.1,0,142.6,0,216
			c0,46.4,26.8,88.7,68.8,108.5C14.9,403.8,71.7,512,168,512c33.4,0,65.3-14,88-38.5c22.6,24.6,54.5,38.6,88,38.5
			c96.5,0,153.2-108.5,99.1-187.6c42-19.7,68.9-62,68.9-108.4C512,142.8,446.6,86.2,373.8,97.4z M256,16c50,0,93,35.7,102.2,84.9
			c-51.7,15.2-89.2,64.6-86,121.8c-5.4,0.9-10.8,1.3-16.2,1.3v-88c0-4.4-3.6-8-8-8s-8,3.6-8,8v57L220.7,148
			c-1.8-4.1-6.5-5.9-10.5-4.2c-1.9,0.8-3.5,2.4-4.2,4.4c-2.2,5.5-0.3,3.2,29,73.7c-56.3-11.6-92.4-66.7-80.8-122.9
			C164.1,50.6,206.7,16,256,16L256,16z M274.2,238.5c3.1,16.1,9.4,31.4,18.6,44.9c-13.9,6.6-26.4,15.8-36.8,27.2
			c-10.4-11.3-22.9-20.5-36.8-27c9.2-13.5,15.6-28.9,18.6-45C249.8,240.5,262.1,240.5,274.2,238.5L274.2,238.5z M16,216
			c0-63.8,57.3-112.8,120.2-102.7c-3,55.6,32.6,106,86,121.8c-1.3,6.8-3.2,13.5-5.8,20C123.8,206,127.9,207,124.3,207
			c-8.3,0-11.1,11.2-3.8,15.1l63.6,34H160c-4.4,0-8,3.6-8,8s3.6,8,8,8h47.6c-30.9,48.4-95.2,62.6-143.6,31.6
			C34.1,284.5,16,251.5,16,216L16,216z M168,496c-85.3,0-133.8-97.3-83.9-165.5c44.7,14,93.4,0.7,124.8-34c4.5,1.9,8.9,4.2,13.2,6.8
			L169,366c-6.9,8.1,5.5,18.3,12.2,10.3l42.7-50.5V352c0,4.4,3.6,8,8,8s8-3.6,8-8v-34.8C307.4,382.1,261.2,496,168,496L168,496z
			 M448,392c0,95.6-118.7,140.2-181.8,68.9c29.1-41.3,29.1-96.4-0.1-137.7c5.7-6.4,12.1-12.1,19.2-17l46,66.9
			c2.5,3.6,7.5,4.6,11.1,2.1s4.6-7.5,2.1-11.1l0,0l-45.3-65.8C367.7,265.3,448,315.4,448,392L448,392z M432.9,311.5
			c-31.4-34.7-80.1-48-124.8-34c-1.7-2.3-3.3-4.7-4.8-7.2c49.4-14.3,50.8-12,53.6-17.1c2.2-3.8,0.8-8.7-3-10.9c-1.8-1-4-1.3-6-0.8
			l-25,6.8l52.2-52.2c3.1-3.1,3.1-8.2,0-11.3c-3.1-3.1-8.2-3.1-11.3,0l-49.5,49.5l5.1-11.6c1.9-4,0.2-8.8-3.8-10.7
			c-4-1.9-8.8-0.2-10.7,3.8c-0.1,0.1-0.1,0.2-0.2,0.4L292.1,245c-19.4-66.7,31-133,99.9-133c57.4,0,104,46.4,104,103.8
			C496,257.5,471.2,295.1,432.9,311.5L432.9,311.5z"/>
		<path class="st0" d="M392.2,159.8c-4.4,0-8,3.6-8,8c0,4.4,3.6,8,8,8c2.1,0,4.2-0.8,5.7-2.3c3.1-3.1,3.1-8.2,0-11.3
			C396.3,160.7,394.3,159.8,392.2,159.8z"/>
		<path class="st0" d="M409.1,150.9c3.2,3,8.3,2.9,11.3-0.3c2.9-3.1,2.9-7.9,0-11C412.9,132.1,401.7,143.4,409.1,150.9z"/>
		<path class="st0" d="M325.2,182.2c-8.6,0-11.1,11.8-3.3,15.3c4,1.8,8.8,0,10.5-4.1c1.8-4,0-8.8-4.1-10.5
			C327.4,182.4,326.3,182.2,325.2,182.2L325.2,182.2z"/>
		<path class="st0" d="M404.8,228.4c-2.2,3.8-0.9,8.7,3,10.9c3.8,2.2,8.7,0.9,10.9-3c1.1-1.8,1.3-4,0.8-6.1
			c-1.2-4.3-5.6-6.8-9.9-5.6C407.6,225.3,405.9,226.6,404.8,228.4z"/>
		<path class="st0" d="M378.8,233.1c-8.9,2.4-7.2,15.7,2.1,15.7c4.4,0,8-3.6,8-8s-3.6-8-8-8C380.2,232.8,379.5,232.9,378.8,233.1z"
			/>
		<path class="st0" d="M99.8,192.8c-3.9-2.1-8.7-0.6-10.8,3.3c-2.1,3.9-0.6,8.7,3.3,10.8c3.9,2.1,8.7,0.6,10.8-3.3
			C105.2,199.8,103.7,194.9,99.8,192.8z"/>
		<path class="st0" d="M60.8,181c-2.1,3.9-0.6,8.7,3.3,10.8s8.7,0.6,10.8-3.3c1-1.9,1.2-4.1,0.6-6.1c-1.3-4.2-5.8-6.6-10-5.3
			C63.5,177.8,61.8,179.2,60.8,181z"/>
		<circle class="st0" cx="96" cy="264" r="8"/>
		<circle class="st0" cx="128" cy="264" r="8"/>
		<circle class="st0" cx="248" cy="104" r="8"/>
		<circle class="st0" cx="248" cy="72" r="8"/>
		<path class="st0" d="M208.1,124.7c1.6-4.1-0.4-8.8-4.5-10.4c-4.1-1.6-8.8,0.4-10.4,4.5c-0.8,2-0.8,4.2,0.1,6.1
			c1.8,4.1,6.5,5.9,10.5,4.2C205.8,128.2,207.4,126.6,208.1,124.7z"/>
		<path class="st0" d="M133.8,412c-4.4,0-8,3.6-8,8s3.6,8,8,8c2.3,0,4.6-1,6.1-2.8c2.9-3.4,2.4-8.4-0.9-11.3
			C137.5,412.7,135.7,412,133.8,412z"/>
		<path class="st0" d="M154.5,387.6c-4.4,0-8,3.6-8,8c0,4.4,3.6,8,8,8c2.4,0,4.6-1,6.1-2.8c2.9-3.4,2.4-8.4-0.9-11.3
			C158.2,388.3,156.4,387.6,154.5,387.6z"/>
		<circle class="st0" cx="232" cy="384" r="8"/>
		<circle class="st0" cx="232" cy="416" r="8"/>
		<path class="st0" d="M351.4,388.3c-3.6,2.5-4.6,7.5-2.1,11.1c2.5,3.6,7.5,4.6,11.1,2.1c1.7-1.2,2.9-3,3.3-5.1
			c0.8-4.4-2.1-8.5-6.4-9.3C355.3,386.6,353.2,387.1,351.4,388.3z"/>
		<path class="st0" d="M369.6,414.7c-3.6,2.5-4.6,7.5-2.1,11.1c2.5,3.6,7.5,4.6,11.1,2.1c1.7-1.2,2.9-3,3.3-5.1
			C382.9,417.7,375.4,410.7,369.6,414.7z"/>
	</g>
</g>
</svg>
