<?xml version="1.0" encoding="utf-8"?>
<!-- Generator: Adobe Illustrator 24.2.1, SVG Export Plug-In . SVG Version: 6.00 Build 0)  -->
<svg version="1.1" id="Capa_1" xmlns="http://www.w3.org/2000/svg" xmlns:xlink="http://www.w3.org/1999/xlink" x="0px" y="0px"
	 viewBox="0 0 512 512" style="enable-background:new 0 0 512 512;" xml:space="preserve">
<style type="text/css">
	.st0{fill:#FF4C60;}
</style>
<g>
	<path class="st0" d="M391.5,271H371v-30h20.5C458,241,512,186.9,512,120.5S457.9,0,391.5,0S271,54.1,271,120.5V141h-30v-20.5
		C241,54.1,186.9,0,120.5,0S0,54.1,0,120.5S54.1,241,120.5,241H141v30h-20.5C54.1,271,0,325.1,0,391.5S54.1,512,120.5,512
		S241,457.9,241,391.5V371h30v20.5c0,66.4,54.1,120.5,120.5,120.5S512,457.9,512,391.5S457.9,271,391.5,271z M391.5,30
		c49.9,0,90.5,40.6,90.5,90.5S441.4,211,391.5,211H371v-40h20.5c27.8,0,50.5-22.6,50.5-50.5S419.4,70,391.5,70S341,92.6,341,120.5
		V271h-40V120.5C301,70.6,341.6,30,391.5,30z M371,141v-20.5c0-11.3,9.2-20.5,20.5-20.5s20.5,9.2,20.5,20.5s-9.2,20.5-20.5,20.5H371
		z M241,241h30v30h-30V241z M30,120.5C30,70.6,70.6,30,120.5,30S211,70.6,211,120.5V141h-40v-20.5c0-27.8-22.6-50.5-50.5-50.5
		S70,92.6,70,120.5S92.6,171,120.5,171H271v40H120.5C70.6,211,30,170.4,30,120.5z M141,120.5V141h-20.5c-11.3,0-20.5-9.2-20.5-20.5
		s9.2-20.5,20.5-20.5S141,109.2,141,120.5z M120.5,482C70.6,482,30,441.4,30,391.5S70.6,301,120.5,301H141v40h-20.5
		C92.6,341,70,363.7,70,391.5S92.6,442,120.5,442s50.5-22.6,50.5-50.5V241h40v150.5C211,441.4,170.4,482,120.5,482z M141,371v20.5
		c0,11.3-9.2,20.5-20.5,20.5s-20.5-9.2-20.5-20.5s9.2-20.5,20.5-20.5H141z M391.5,482c-49.9,0-90.5-40.6-90.5-90.5V371h40v20.5
		c0,27.8,22.6,50.5,50.5,50.5s50.5-22.6,50.5-50.5S419.4,341,391.5,341H241v-40h150.5c49.9,0,90.5,40.6,90.5,90.5
		S441.4,482,391.5,482z M371,391.5V371h20.5c11.3,0,20.5,9.2,20.5,20.5s-9.2,20.5-20.5,20.5S371,402.8,371,391.5z"/>
</g>
</svg>
