<?xml version="1.0" encoding="utf-8"?>
<!-- Generator: Adobe Illustrator 24.2.3, SVG Export Plug-In . SVG Version: 6.00 Build 0)  -->
<svg version="1.1" id="Capa_1" xmlns="http://www.w3.org/2000/svg" xmlns:xlink="http://www.w3.org/1999/xlink" x="0px" y="0px"
	 viewBox="0 0 464 464" style="enable-background:new 0 0 464 464;" xml:space="preserve">
<style type="text/css">
	.st0{fill:#FF4C60;}
	.st1{fill:#FFFFFF;}
</style>
<polygon class="st0" points="168,300 16,452 24,460 328,460 "/>
<g>
	<path class="st1" d="M24,436h304h48c13.2,0,24-10.8,24-24v-40h40c13.2,0,24-10.8,24-24V28c0-13.2-10.8-24-24-24H88
		C74.8,4,64,14.8,64,28v40H24C10.8,68,0,78.8,0,92v320C0,425.2,10.8,436,24,436z M27.3,420L168,279.3l90.3,90.3l50.3,50.3H27.3z
		 M331.3,420l-56-56l20.7-20.7l76.7,76.7H331.3z M80,28c0-4.4,3.6-8,8-8h352c4.4,0,8,3.6,8,8v320c0,4.4-3.6,8-8,8h-40V92
		c0-1.7-0.2-3.4-0.5-5c-0.3-1.5-0.8-2.9-1.3-4.2c0,0,0-0.1,0-0.1c-0.6-1.3-1.2-2.5-2-3.7c-0.1-0.2-0.3-0.4-0.4-0.6
		c-0.5-0.7-1.1-1.4-1.7-2.1c-4.4-5-10.8-8.3-18-8.3H80V28z M24,84h351.7c0.2,0,0.5,0.1,0.9,0.1c0.4,0,0.7,0.1,1.1,0.2
		c0.7,0.2,1.5,0.5,2.4,0.9c2.4,1.4,4,3.9,4,6.8v272v44.7l-82.3-82.3c-3.1-3.1-8.2-3.1-11.3,0L264,352.7l-90.3-90.3
		c-3.1-3.1-8.2-3.1-11.3,0L16,408.7V92C16,87.6,19.6,84,24,84z"/>
	<path class="st1" d="M88,212c30.9,0,56-25.1,56-56s-25.1-56-56-56s-56,25.1-56,56S57.1,212,88,212z M88,116c22.1,0,40,17.9,40,40
		s-17.9,40-40,40s-40-17.9-40-40S65.9,116,88,116z"/>
</g>
</svg>
