<?xml version="1.0" encoding="utf-8"?>
<!-- Generator: Adobe Illustrator 24.2.3, SVG Export Plug-In . SVG Version: 6.00 Build 0)  -->
<svg version="1.1" xmlns="http://www.w3.org/2000/svg" xmlns:xlink="http://www.w3.org/1999/xlink" x="0px" y="0px"
	 viewBox="0 0 128 128" style="enable-background:new 0 0 128 128;" xml:space="preserve">
<style type="text/css">
	.st0{fill:#FF4C60;}
	.st1{fill:#FFFFFF;}
</style>
<g id="Layer_2">
	<polygon class="st0" points="75.9,35.5 51,76.2 60.5,116.3 91.8,115.7 102.1,75.9 	"/>
</g>
<g id="Layer_1">
	<g>
		<path class="st1" d="M94.6,113.9H81l9.5-42.1c0.1-0.5,0-1-0.3-1.4c0,0-18.6-25.7-24.8-34.2c-0.1-0.1-0.6-0.7-1.4-0.7
			c-0.9,0-1.3,0.5-1.4,0.7c-6.2,8.5-24.8,34.2-24.8,34.2c-0.3,0.4-0.4,0.9-0.3,1.4l9.5,42.1H33.4c-1,0-1.7,0.8-1.8,1.7v10.6
			c0,1,0.8,1.7,1.7,1.8h61.3c1,0,1.7-0.8,1.8-1.7v-10.6C96.4,114.7,95.6,113.9,94.6,113.9z M67.9,73.2c1.2,0,2.1,1,2.1,2.2
			c0,1.1-0.9,2.1-2.1,2.1h-7.8c-1.2,0-2.2-0.9-2.2-2.1s0.9-2.2,2.1-2.2H67.9z M41,71.8l21.2-29.2v27.1H60c-3.1,0-5.7,2.5-5.7,5.6
			s2.5,5.7,5.6,5.7h8c3.1,0,5.6-2.6,5.6-5.7s-2.5-5.5-5.6-5.6h-2.2V42.6L87,71.8l-9.5,42.1H50.6L41,71.8z M92.9,124.5H35.1v-7.1
			h57.8V124.5z"/>
		<path class="st1" d="M118.3,0c-4.7,0-8.7,3.4-9.6,8h-35V1.8c0-1-0.8-1.8-1.8-1.8H56c-1,0-1.7,0.8-1.8,1.7V8h-35
			c-1-5.3-6-8.8-11.3-7.8s-8.8,6-7.8,11.3s6,8.8,11.3,7.8c4-0.7,7.1-3.8,7.8-7.8h26.9C32.4,17.2,22.2,29.4,19,44
			c-5.3,0.4-9.3,5.1-8.9,10.4s5.1,9.3,10.4,8.9s9.3-5.1,8.9-10.4c-0.3-4-3.1-7.4-6.9-8.6c3.6-15.8,15.9-28.2,31.8-31.9v5.2
			c0,1,0.8,1.8,1.8,1.8H72c1,0,1.7-0.8,1.8-1.8v-5.2c15.8,3.7,28.2,16,31.8,31.9c-5.2,1.5-8.1,6.9-6.6,12.1s6.9,8.1,12.1,6.6
			s8.1-6.9,6.6-12.1c-1.1-3.9-4.6-6.6-8.6-6.9c-3.2-14.6-13.3-26.8-27.2-32.6h26.9c1,5.3,6,8.8,11.3,7.8s8.8-6,7.8-11.3
			C127,3.3,123,0,118.3,0z M25.9,53.7c0,3.4-2.8,6.2-6.2,6.2s-6.2-2.8-6.2-6.2s2.8-6.2,6.2-6.2C23.2,47.5,25.9,50.3,25.9,53.7z
			 M114.5,53.7c0,3.4-2.8,6.2-6.2,6.2s-6.2-2.8-6.2-6.2s2.8-6.2,6.2-6.2S114.5,50.3,114.5,53.7z M9.7,15.9c-3.4,0-6.2-2.8-6.2-6.2
			s2.8-6.2,6.2-6.2s6.2,2.8,6.2,6.2C15.9,13.2,13.2,15.9,9.7,15.9z M70.2,15.9H57.8V3.5h12.4V15.9z M118.3,15.9
			c-3.4,0-6.2-2.8-6.2-6.2s2.8-6.2,6.2-6.2s6.2,2.8,6.2,6.2C124.5,13.2,121.7,15.9,118.3,15.9z"/>
	</g>
</g>
</svg>
