<?xml version="1.0" encoding="utf-8"?>
<!-- Generator: Adobe Illustrator 24.2.3, SVG Export Plug-In . SVG Version: 6.00 Build 0)  -->
<svg version="1.1" id="Layer_1" xmlns="http://www.w3.org/2000/svg" xmlns:xlink="http://www.w3.org/1999/xlink" x="0px" y="0px"
	 viewBox="0 0 512 512" style="enable-background:new 0 0 512 512;" xml:space="preserve">
<style type="text/css">
	.st0{fill:#FF4C60;}
	.st1{fill:#FFFFFF;}
</style>
<path class="st0" d="M27,299.8h245.5V478H27V299.8z"/>
<path class="st1" d="M497,129.5h-80.2c-8.6,0-16,6.9-16,16.1v18.2h-88.2c-8.6,0-16,6.9-16,16.1V361H16c-0.3,0-1-0.8-1-1.1v-34.3
	h265.5v-16.1H15V34c0-0.3,0.7,0,1,0h432.8c0.3,0,0-0.3,0,0v77.2h15V34c0-9.2-6.5-16.1-15-16.1H16C7.5,18,0,24.9,0,34v326
	c0,9.2,7.5,17.2,16,17.2h168.3v52.5h-32.1v16.1h160.3v-16.1h-33.1v-52.5h17v17.2c0,9.2,7.5,17.2,16,17.2h136.3c8.6,0,15-8,15-17.2
	v-60H497c8.6,0,15-8,15-17.2V145.5C512,136.4,505.5,129.5,497,129.5z M264.5,429.7h-65.1v-52.5h65.1V429.7z M416.8,145.5H497
	c0.3,0,0-0.3,0,0v18.2h-81.2v-18.2C415.8,145.2,416.5,145.5,416.8,145.5z M415.8,179.8H497v104h-81.2V179.8z M448.9,395.3H312.6
	c-0.3,0-1-0.8-1-1.1V377h137.3v17.2C448.9,394.6,449.2,395.3,448.9,395.3z M448.9,361H311.6V179.8c0-0.3,0.7,0,1,0h88.2V317
	c0,9.2,7.5,17.2,16,17.2h32.1V361z M497,318.1h-80.2c-0.3,0-1-0.8-1-1.1v-17.2H497V317C497,317.4,497.2,318.1,497,318.1z"/>
<path class="st1" d="M47.1,127.1v-24h25v-15h-40v39.1L47.1,127.1L47.1,127.1z"/>
<path class="st1" d="M320.6,247.4h15v-16h17v-15h-32.1v31H320.6z"/>
<path class="st1" d="M424.8,216.3v31.1h15v-16h17v-15h-32V216.3z"/>
</svg>
